<?xml version="1.0" encoding="UTF-8"?>
<!DOCTYPE svg PUBLIC "-//W3C//DTD SVG 1.1//EN" "http://www.w3.org/Graphics/SVG/1.1/DTD/svg11.dtd">
<svg xmlns="http://www.w3.org/2000/svg" version="1.1" width="500px" height="500px" style="shape-rendering:geometricPrecision; text-rendering:geometricPrecision; image-rendering:optimizeQuality; fill-rule:evenodd; clip-rule:evenodd" xmlns:xlink="http://www.w3.org/1999/xlink">
<g><path style="opacity:1" fill="#b7fe19" d="M 159.5,80.5 C 157.138,84.733 155.138,89.233 153.5,94C 153.57,94.7648 153.903,95.2648 154.5,95.5C 154.814,100.651 157.481,103.151 162.5,103C 170.662,99.1773 177.329,93.5106 182.5,86C 190.333,80.1085 199,78.2752 208.5,80.5C 207.398,82.0919 208.065,82.9252 210.5,83C 211.224,86.7705 213.557,88.4372 217.5,88C 218.212,89.425 218.379,90.925 218,92.5C 218.667,93.1667 219.333,93.8333 220,94.5C 220.718,93.5494 221.551,93.3828 222.5,94C 224.837,95.7981 225.503,97.9647 224.5,100.5C 226.606,104.108 227.606,107.774 227.5,111.5C 227.272,113.397 226.272,114.73 224.5,115.5C 224.709,116.086 225.043,116.586 225.5,117C 223.683,121.185 222.683,125.685 222.5,130.5C 223.162,133.468 223.495,136.468 223.5,139.5C 224.675,139.281 225.675,139.614 226.5,140.5C 224.089,145.841 225.755,148.175 231.5,147.5C 231.5,148.833 231.5,150.167 231.5,151.5C 233.857,151.663 236.19,151.497 238.5,151C 239.833,150.333 239.833,149.667 238.5,149C 248.07,148.177 256.737,150.511 264.5,156C 268.19,160.905 270.19,167.072 270.5,174.5C 269.739,177.854 268.072,180.687 265.5,183C 260.15,186.008 255.15,189.508 250.5,193.5C 248.673,195.487 247.673,197.821 247.5,200.5C 247.441,204.548 249.108,207.715 252.5,210C 260.372,213.957 268.705,216.29 277.5,217C 286.574,220.253 291.241,226.753 291.5,236.5C 291.85,241.036 291.183,245.369 289.5,249.5C 287.451,252.55 284.784,254.883 281.5,256.5C 279.533,256.739 277.699,256.406 276,255.5C 274.513,256.253 274.346,257.086 275.5,258C 273.159,258.948 270.826,260.115 268.5,261.5C 267.833,263.167 267.167,264.833 266.5,266.5C 261.799,263.966 258.299,260.299 256,255.5C 255.182,258.227 255.348,260.894 256.5,263.5C 257.167,263.167 257.833,262.833 258.5,262.5C 260.11,266.261 262.277,269.594 265,272.5C 265.667,275.833 265.667,279.167 265,282.5C 264.5,283 264,283.5 263.5,284C 264.778,287.909 266.111,291.075 267.5,293.5C 268.5,293.5 269.5,293.5 270.5,293.5C 270.326,295.861 269.993,298.194 269.5,300.5C 273.641,300.576 275.308,302.743 274.5,307C 274.029,310.146 273.029,312.979 271.5,315.5C 267.701,318.504 263.368,320.67 258.5,322C 252.464,323.148 246.464,324.482 240.5,326C 237.751,327.123 235.251,328.623 233,330.5C 231.991,332.025 231.491,333.692 231.5,335.5C 231.956,341.53 232.623,347.53 233.5,353.5C 228.417,354.895 223.417,356.728 218.5,359C 214.167,362.667 209.833,366.333 205.5,370C 202.531,372.318 199.198,373.818 195.5,374.5C 193.167,374.5 190.833,374.5 188.5,374.5C 188.828,363.986 188.494,353.653 187.5,343.5C 186.5,333.177 186,322.844 186,312.5C 192.349,289.159 205.349,270.492 225,256.5C 225.49,255.207 225.657,253.873 225.5,252.5C 223.217,252.608 221.217,253.441 219.5,255C 204.847,266.468 193.847,280.634 186.5,297.5C 185.504,297.586 184.671,297.252 184,296.5C 183.414,293.981 182.247,291.981 180.5,290.5C 179.18,284.706 177.347,279.039 175,273.5C 169.426,262.014 164.093,250.347 159,238.5C 157.358,233.598 156.191,228.598 155.5,223.5C 154.455,210.519 154.289,197.519 155,184.5C 157.042,172.66 158.542,160.66 159.5,148.5C 160.511,141.785 161.845,135.119 163.5,128.5C 163.292,125.815 162.125,125.149 160,126.5C 155.008,145.943 151.175,165.61 148.5,185.5C 147.173,189.951 146.506,194.784 146.5,200C 147.216,211.888 148.883,223.721 151.5,235.5C 152.183,235.863 152.85,236.196 153.5,236.5C 156.009,242.01 158.342,247.676 160.5,253.5C 160.843,255.483 160.176,256.817 158.5,257.5C 145.187,249.508 132.187,241.008 119.5,232C 109.587,224.319 103.087,214.486 100,202.5C 97.8333,201 96.3333,201.5 95.5,204C 97.3862,210.606 100.22,216.772 104,222.5C 109.531,228.366 115.365,233.866 121.5,239C 131.984,245.329 142.317,251.829 152.5,258.5C 152.64,260.124 151.973,261.29 150.5,262C 152,264.167 153.167,264 154,261.5C 158.891,265.276 161.724,270.276 162.5,276.5C 163.429,275.311 163.762,273.978 163.5,272.5C 164.5,272.5 165.5,272.5 166.5,272.5C 166.45,274.59 167.45,275.923 169.5,276.5C 170.326,278.959 170.993,281.459 171.5,284C 171.241,285.261 170.574,286.261 169.5,287C 171.134,287.494 172.801,287.66 174.5,287.5C 174.887,292.24 174.887,296.907 174.5,301.5C 174.868,302.91 175.701,303.91 177,304.5C 178.034,308.333 179.2,311.999 180.5,315.5C 181.54,335.181 181.54,354.848 180.5,374.5C 175.049,374.972 170.382,373.306 166.5,369.5C 165.167,367.5 165.167,365.5 166.5,363.5C 166.154,362.304 165.654,362.304 165,363.5C 163.977,359.683 164.477,356.183 166.5,353C 165.726,350.595 165.226,348.095 165,345.5C 163.817,346.731 162.651,346.731 161.5,345.5C 160.833,343.833 160.167,342.167 159.5,340.5C 159.043,339.702 158.376,339.369 157.5,339.5C 153.74,331.81 148.073,325.977 140.5,322C 139.167,321.333 137.833,321.333 136.5,322C 127.685,328.575 118.351,329.242 108.5,324C 102.919,319.98 98.9194,314.814 96.5,308.5C 95.3516,304.019 95.1849,299.352 96,294.5C 97.1503,291.232 97.9836,287.899 98.5,284.5C 99.9171,281.66 99.5838,278.993 97.5,276.5C 97.1412,274.629 96.1412,273.129 94.5,272C 92.1667,270.333 89.8333,268.667 87.5,267C 77.1668,262.563 67.1668,257.563 57.5,252C 50.8056,246.425 47.4723,239.259 47.5,230.5C 47.259,227.206 48.0924,224.206 50,221.5C 54.1896,218.066 58.1896,214.4 62,210.5C 63.9076,207.794 64.741,204.794 64.5,201.5C 64.741,198.206 63.9076,195.206 62,192.5C 56.7159,184.881 51.0492,177.548 45,170.5C 43.7043,167.429 42.5377,164.429 41.5,161.5C 40.7105,145.798 48.0439,136.965 63.5,135C 67.8489,134.464 72.1823,134.631 76.5,135.5C 84.7697,136.296 91.603,133.63 97,127.5C 98.8223,123.91 98.9889,120.243 97.5,116.5C 98.0967,116.265 98.4301,115.765 98.5,115C 94.2155,107.029 92.2155,98.5293 92.5,89.5C 95.4929,79.3182 101.16,70.8182 109.5,64C 117.27,57.0695 126.27,52.5695 136.5,50.5C 148.55,52.0506 156.05,58.7173 159,70.5C 159.498,73.8168 159.665,77.1501 159.5,80.5 Z"/></g>
<g><path style="opacity:1" fill="#e76204" d="M 373.5,54.5 C 365.688,72.3927 360.021,91.0594 356.5,110.5C 353.338,108.283 349.671,107.117 345.5,107C 346.43,105.806 347.097,104.473 347.5,103C 346.381,100.8 345.381,98.9665 344.5,97.5C 345.64,93.7529 346.807,90.0862 348,86.5C 348.497,83.854 348.664,81.1873 348.5,78.5C 350.241,67.7607 354.574,58.2607 361.5,50C 366.823,48.3107 370.823,49.8107 373.5,54.5 Z"/></g>
<g><path style="opacity:1" fill="#fd7802" d="M 373.5,54.5 C 377.916,61.8954 381.082,69.8954 383,78.5C 388.793,99.6322 393.626,120.966 397.5,142.5C 391.934,144.486 385.934,145.486 379.5,145.5C 378.167,145.5 376.833,145.5 375.5,145.5C 375.297,147.39 375.963,148.89 377.5,150C 384.548,150.882 391.548,152.048 398.5,153.5C 399.61,157.406 400.443,161.406 401,165.5C 401.383,166.056 401.883,166.389 402.5,166.5C 402.5,167.167 402.5,167.833 402.5,168.5C 402.386,176.534 403.72,184.201 406.5,191.5C 408.721,202.713 410.388,214.047 411.5,225.5C 405.491,225.334 399.491,225.501 393.5,226C 390.363,226.601 387.363,227.601 384.5,229C 388.5,229.333 392.5,229.667 396.5,230C 398.723,230.566 400.723,231.4 402.5,232.5C 405.381,234.68 408.714,235.68 412.5,235.5C 412.187,239.042 412.521,242.375 413.5,245.5C 414.668,258.501 411.835,270.501 405,281.5C 398.766,288.533 390.932,292.2 381.5,292.5C 372.827,292.666 364.16,292.5 355.5,292C 357.167,291.667 358.833,291.333 360.5,291C 357.098,289.6 354.264,287.433 352,284.5C 350.092,280.586 347.759,276.92 345,273.5C 343.87,266.873 342.37,260.373 340.5,254C 342.788,253.178 345.122,252.511 347.5,252C 346.437,250.812 345.103,250.312 343.5,250.5C 342.209,250.737 341.209,250.404 340.5,249.5C 337.746,230.489 338.08,211.489 341.5,192.5C 345.11,192.598 348.443,191.764 351.5,190C 350.906,189.536 350.239,189.369 349.5,189.5C 348.041,189.567 346.708,189.234 345.5,188.5C 343.685,187.209 342.685,185.376 342.5,183C 346.215,160.443 350.215,137.943 354.5,115.5C 356.042,114.699 357.708,114.366 359.5,114.5C 359.5,113.5 359.5,112.5 359.5,111.5C 358.209,111.737 357.209,111.404 356.5,110.5C 360.021,91.0594 365.688,72.3927 373.5,54.5 Z"/></g>
<g><path style="opacity:0.753" fill="#5d8e06" d="M 159.5,80.5 C 158.12,85.5939 156.453,90.5939 154.5,95.5C 153.903,95.2648 153.57,94.7648 153.5,94C 155.138,89.233 157.138,84.733 159.5,80.5 Z"/></g>
<g><path style="opacity:1" fill="#e16715" d="M 348.5,78.5 C 348.664,81.1873 348.497,83.854 348,86.5C 346.807,90.0862 345.64,93.7529 344.5,97.5C 345.381,98.9665 346.381,100.8 347.5,103C 347.097,104.473 346.43,105.806 345.5,107C 349.671,107.117 353.338,108.283 356.5,110.5C 357.209,111.404 358.209,111.737 359.5,111.5C 359.5,112.5 359.5,113.5 359.5,114.5C 357.708,114.366 356.042,114.699 354.5,115.5C 350.715,115.631 347.048,116.298 343.5,117.5C 343.5,119.5 343.5,121.5 343.5,123.5C 341.61,123.703 340.11,123.037 339,121.5C 338.998,124.051 338.164,126.051 336.5,127.5C 336.851,124.097 337.518,120.763 338.5,117.5C 344.028,115.576 349.695,114.076 355.5,113C 350.777,110.765 345.777,109.931 340.5,110.5C 342.251,99.4974 344.917,88.8308 348.5,78.5 Z"/></g>
<g><path style="opacity:0.906" fill="#669119" d="M 92.5,89.5 C 92.2155,98.5293 94.2155,107.029 98.5,115C 98.4301,115.765 98.0967,116.265 97.5,116.5C 95.3979,111.288 93.5646,105.954 92,100.5C 91.1901,96.6425 91.3567,92.9758 92.5,89.5 Z"/></g>
<g><path style="opacity:1" fill="#fbae7d" d="M 340.5,110.5 C 345.777,109.931 350.777,110.765 355.5,113C 349.695,114.076 344.028,115.576 338.5,117.5C 338.721,114.933 339.388,112.599 340.5,110.5 Z"/></g>
<g><path style="opacity:1" fill="#e76204" d="M 354.5,115.5 C 350.215,137.943 346.215,160.443 342.5,183C 342.685,185.376 343.685,187.209 345.5,188.5C 343.435,188.483 341.435,188.15 339.5,187.5C 335.366,186.515 331.032,186.182 326.5,186.5C 326.795,184.265 326.461,182.265 325.5,180.5C 328.782,162.756 332.449,145.089 336.5,127.5C 338.164,126.051 338.998,124.051 339,121.5C 340.11,123.037 341.61,123.703 343.5,123.5C 343.5,121.5 343.5,119.5 343.5,117.5C 347.048,116.298 350.715,115.631 354.5,115.5 Z"/></g>
<g><path style="opacity:1" fill="#fbac77" d="M 397.5,142.5 C 398.913,145.219 399.58,148.219 399.5,151.5C 398.85,151.804 398.183,152.137 397.5,152.5C 391.016,149.714 384.349,147.881 377.5,147C 378.416,146.722 379.082,146.222 379.5,145.5C 385.934,145.486 391.934,144.486 397.5,142.5 Z"/></g>
<g><path style="opacity:1" fill="#b9f727" d="M 208.5,80.5 C 218.42,83.2524 224.92,89.5857 228,99.5C 228.918,102.598 229.418,105.765 229.5,109C 228.806,116.776 227.473,124.443 225.5,132C 225.851,138.014 228.851,142.014 234.5,144C 241.337,146.395 248.337,148.062 255.5,149C 267.391,153.665 272.724,162.165 271.5,174.5C 271.167,174.5 270.833,174.5 270.5,174.5C 270.19,167.072 268.19,160.905 264.5,156C 256.737,150.511 248.07,148.177 238.5,149C 239.833,149.667 239.833,150.333 238.5,151C 236.19,151.497 233.857,151.663 231.5,151.5C 231.5,150.167 231.5,148.833 231.5,147.5C 225.755,148.175 224.089,145.841 226.5,140.5C 225.675,139.614 224.675,139.281 223.5,139.5C 223.495,136.468 223.162,133.468 222.5,130.5C 222.683,125.685 223.683,121.185 225.5,117C 225.043,116.586 224.709,116.086 224.5,115.5C 226.272,114.73 227.272,113.397 227.5,111.5C 227.606,107.774 226.606,104.108 224.5,100.5C 225.503,97.9647 224.837,95.7981 222.5,94C 221.551,93.3828 220.718,93.5494 220,94.5C 219.333,93.8333 218.667,93.1667 218,92.5C 218.379,90.925 218.212,89.425 217.5,88C 213.557,88.4372 211.224,86.7705 210.5,83C 208.065,82.9252 207.398,82.0919 208.5,80.5 Z"/></g>
<g><path style="opacity:1" fill="#ed7d23" d="M 379.5,145.5 C 379.082,146.222 378.416,146.722 377.5,147C 384.349,147.881 391.016,149.714 397.5,152.5C 398.183,152.137 398.85,151.804 399.5,151.5C 400.861,156.304 401.861,161.304 402.5,166.5C 401.883,166.389 401.383,166.056 401,165.5C 400.443,161.406 399.61,157.406 398.5,153.5C 391.548,152.048 384.548,150.882 377.5,150C 375.963,148.89 375.297,147.39 375.5,145.5C 376.833,145.5 378.167,145.5 379.5,145.5 Z"/></g>
<g><path style="opacity:0.916" fill="#ed8a2b" d="M 402.5,168.5 C 404.57,175.913 405.903,183.579 406.5,191.5C 403.72,184.201 402.386,176.534 402.5,168.5 Z"/></g>
<g><path style="opacity:1" fill="#a9e12c" d="M 159.5,148.5 C 158.542,160.66 157.042,172.66 155,184.5C 154.289,197.519 154.455,210.519 155.5,223.5C 153.983,218.414 153.15,213.081 153,207.5C 152.142,187.379 154.308,167.713 159.5,148.5 Z"/></g>
<g><path style="opacity:0.706" fill="#4b720d" d="M 41.5,161.5 C 42.5377,164.429 43.7043,167.429 45,170.5C 51.0492,177.548 56.7159,184.881 62,192.5C 63.9076,195.206 64.741,198.206 64.5,201.5C 59.8711,191.009 53.3711,181.675 45,173.5C 42.715,169.813 41.5483,165.813 41.5,161.5 Z"/></g>
<g><path style="opacity:1" fill="#feb583" d="M 339.5,187.5 C 341.435,188.15 343.435,188.483 345.5,188.5C 346.708,189.234 348.041,189.567 349.5,189.5C 342.024,190.644 334.69,192.644 327.5,195.5C 325.631,193.365 324.964,190.698 325.5,187.5C 330.167,187.5 334.833,187.5 339.5,187.5 Z"/></g>
<g><path style="opacity:1" fill="#b7f32f" d="M 148.5,185.5 C 147.633,202.762 149.3,219.762 153.5,236.5C 152.85,236.196 152.183,235.863 151.5,235.5C 148.883,223.721 147.216,211.888 146.5,200C 146.506,194.784 147.173,189.951 148.5,185.5 Z"/></g>
<g><path style="opacity:0.902" fill="#3d6208" d="M 270.5,174.5 C 270.833,174.5 271.167,174.5 271.5,174.5C 270.753,179.775 268.086,183.942 263.5,187C 257.045,190.297 251.712,194.797 247.5,200.5C 247.673,197.821 248.673,195.487 250.5,193.5C 255.15,189.508 260.15,186.008 265.5,183C 268.072,180.687 269.739,177.854 270.5,174.5 Z"/></g>
<g><path style="opacity:1" fill="#e08146" d="M 325.5,180.5 C 326.461,182.265 326.795,184.265 326.5,186.5C 331.032,186.182 335.366,186.515 339.5,187.5C 334.833,187.5 330.167,187.5 325.5,187.5C 324.964,190.698 325.631,193.365 327.5,195.5C 326.329,196.345 324.995,197.011 323.5,197.5C 324.058,191.82 324.725,186.153 325.5,180.5 Z"/></g>
<g><path style="opacity:1" fill="#e86202" d="M 341.5,192.5 C 338.08,211.489 337.746,230.489 340.5,249.5C 338.585,249.784 336.919,249.451 335.5,248.5C 330.417,246.922 325.084,246.255 319.5,246.5C 320.124,238.181 320.457,229.848 320.5,221.5C 320.5,221.167 320.5,220.833 320.5,220.5C 321.117,220.389 321.617,220.056 322,219.5C 322.012,214.316 322.845,209.316 324.5,204.5C 326.167,203.333 327.833,202.167 329.5,201C 328.672,200.085 327.672,199.419 326.5,199C 328.5,197.667 330.5,196.333 332.5,195C 335.722,194.801 338.722,193.968 341.5,192.5 Z"/></g>
<g><path style="opacity:1" fill="#df6819" d="M 349.5,189.5 C 350.239,189.369 350.906,189.536 351.5,190C 348.443,191.764 345.11,192.598 341.5,192.5C 338.722,193.968 335.722,194.801 332.5,195C 330.5,196.333 328.5,197.667 326.5,199C 327.672,199.419 328.672,200.085 329.5,201C 327.833,202.167 326.167,203.333 324.5,204.5C 322.845,209.316 322.012,214.316 322,219.5C 321.617,220.056 321.117,220.389 320.5,220.5C 321.035,212.759 322.035,205.092 323.5,197.5C 324.995,197.011 326.329,196.345 327.5,195.5C 334.69,192.644 342.024,190.644 349.5,189.5 Z"/></g>
<g><path style="opacity:1" fill="#fcb281" d="M 411.5,225.5 C 412.434,226.568 412.768,227.901 412.5,229.5C 411.837,231.042 411.17,232.709 410.5,234.5C 407.904,233.518 405.238,232.851 402.5,232.5C 400.723,231.4 398.723,230.566 396.5,230C 392.5,229.667 388.5,229.333 384.5,229C 387.363,227.601 390.363,226.601 393.5,226C 399.491,225.501 405.491,225.334 411.5,225.5 Z"/></g>
<g><path style="opacity:1" fill="#354e04" d="M 159.5,148.5 C 154.308,167.713 152.142,187.379 153,207.5C 153.15,213.081 153.983,218.414 155.5,223.5C 156.191,228.598 157.358,233.598 159,238.5C 164.093,250.347 169.426,262.014 175,273.5C 177.347,279.039 179.18,284.706 180.5,290.5C 181.453,295.554 182.62,300.554 184,305.5C 185.144,302.92 185.978,300.253 186.5,297.5C 193.847,280.634 204.847,266.468 219.5,255C 221.217,253.441 223.217,252.608 225.5,252.5C 225.657,253.873 225.49,255.207 225,256.5C 205.349,270.492 192.349,289.159 186,312.5C 186,322.844 186.5,333.177 187.5,343.5C 187.555,354.848 187.222,366.181 186.5,377.5C 186.038,382.162 185.538,386.829 185,391.5C 184.29,392.973 183.124,393.64 181.5,393.5C 181.218,388.073 181.551,382.74 182.5,377.5C 182.667,359.83 182.5,342.164 182,324.5C 181.819,321.305 181.319,318.305 180.5,315.5C 179.398,303.227 176.898,291.227 173,279.5C 168.003,270.67 161.17,263.67 152.5,258.5C 142.317,251.829 131.984,245.329 121.5,239C 115.365,233.866 109.531,228.366 104,222.5C 100.22,216.772 97.3862,210.606 95.5,204C 96.3333,201.5 97.8333,201 100,202.5C 103.087,214.486 109.587,224.319 119.5,232C 132.187,241.008 145.187,249.508 158.5,257.5C 160.771,259.266 162.937,261.266 165,263.5C 164.335,259.834 162.835,256.5 160.5,253.5C 158.342,247.676 156.009,242.01 153.5,236.5C 149.3,219.762 147.633,202.762 148.5,185.5C 151.175,165.61 155.008,145.943 160,126.5C 162.125,125.149 163.292,125.815 163.5,128.5C 161.845,135.119 160.511,141.785 159.5,148.5 Z"/></g>
<g><path style="opacity:1" fill="#e87c2f" d="M 412.5,229.5 C 413.194,234.805 413.528,240.138 413.5,245.5C 412.521,242.375 412.187,239.042 412.5,235.5C 408.714,235.68 405.381,234.68 402.5,232.5C 405.238,232.851 407.904,233.518 410.5,234.5C 411.17,232.709 411.837,231.042 412.5,229.5 Z"/></g>
<g><path style="opacity:0.882" fill="#dc6b1d" d="M 320.5,221.5 C 320.457,229.848 320.124,238.181 319.5,246.5C 325.084,246.255 330.417,246.922 335.5,248.5C 329.741,248.214 324.075,248.548 318.5,249.5C 318.222,248.237 317.889,246.57 317.5,244.5C 318.121,236.64 319.121,228.973 320.5,221.5 Z"/></g>
<g><path style="opacity:0.592" fill="#8eb23a" d="M 291.5,236.5 C 292.736,240.701 292.736,245.035 291.5,249.5C 290.833,249.5 290.167,249.5 289.5,249.5C 291.183,245.369 291.85,241.036 291.5,236.5 Z"/></g>
<g><path style="opacity:1" fill="#fcb182" d="M 335.5,248.5 C 336.919,249.451 338.585,249.784 340.5,249.5C 341.209,250.404 342.209,250.737 343.5,250.5C 337.642,252.305 331.642,254.139 325.5,256C 322.823,256.814 320.823,258.314 319.5,260.5C 318.518,257.038 318.185,253.371 318.5,249.5C 324.075,248.548 329.741,248.214 335.5,248.5 Z"/></g>
<g><path style="opacity:1" fill="#b6f626" d="M 281.5,256.5 C 278.061,258.394 274.728,260.56 271.5,263C 268.847,264.775 267.847,266.942 268.5,269.5C 267.541,271.545 266.875,273.711 266.5,276C 268.134,284.903 270.968,293.403 275,301.5C 275.81,305.358 275.643,309.024 274.5,312.5C 273.272,313.306 272.272,314.306 271.5,315.5C 273.029,312.979 274.029,310.146 274.5,307C 275.308,302.743 273.641,300.576 269.5,300.5C 269.993,298.194 270.326,295.861 270.5,293.5C 269.5,293.5 268.5,293.5 267.5,293.5C 266.111,291.075 264.778,287.909 263.5,284C 264,283.5 264.5,283 265,282.5C 265.667,279.167 265.667,275.833 265,272.5C 262.277,269.594 260.11,266.261 258.5,262.5C 257.833,262.833 257.167,263.167 256.5,263.5C 255.348,260.894 255.182,258.227 256,255.5C 258.299,260.299 261.799,263.966 266.5,266.5C 267.167,264.833 267.833,263.167 268.5,261.5C 270.826,260.115 273.159,258.948 275.5,258C 274.346,257.086 274.513,256.253 276,255.5C 277.699,256.406 279.533,256.739 281.5,256.5 Z"/></g>
<g><path style="opacity:1" fill="#aedc3a" d="M 160.5,253.5 C 162.835,256.5 164.335,259.834 165,263.5C 162.937,261.266 160.771,259.266 158.5,257.5C 160.176,256.817 160.843,255.483 160.5,253.5 Z"/></g>
<g><path style="opacity:1" fill="#e66507" d="M 343.5,250.5 C 345.103,250.312 346.437,250.812 347.5,252C 345.122,252.511 342.788,253.178 340.5,254C 342.37,260.373 343.87,266.873 345,273.5C 347.759,276.92 350.092,280.586 352,284.5C 354.264,287.433 357.098,289.6 360.5,291C 358.833,291.333 357.167,291.667 355.5,292C 364.16,292.5 372.827,292.666 381.5,292.5C 380.432,293.434 379.099,293.768 377.5,293.5C 373.5,293.5 369.5,293.5 365.5,293.5C 362.167,293.5 358.833,293.5 355.5,293.5C 333.922,292.921 321.922,281.921 319.5,260.5C 320.823,258.314 322.823,256.814 325.5,256C 331.642,254.139 337.642,252.305 343.5,250.5 Z"/></g>
<g><path style="opacity:0.961" fill="#40600c" d="M 47.5,230.5 C 47.4723,239.259 50.8056,246.425 57.5,252C 67.1668,257.563 77.1668,262.563 87.5,267C 89.8333,268.667 92.1667,270.333 94.5,272C 96.1412,273.129 97.1412,274.629 97.5,276.5C 97.5,277.167 97.1667,277.5 96.5,277.5C 94.3324,274.5 91.6657,272 88.5,270C 78.747,265.526 69.0804,260.859 59.5,256C 51.9965,250.33 47.6631,242.83 46.5,233.5C 46.5195,232.274 46.8529,231.274 47.5,230.5 Z"/></g>
<g><path style="opacity:0.125" fill="#3f5e08" d="M 289.5,249.5 C 290.167,249.5 290.833,249.5 291.5,249.5C 290.094,252.414 288.094,254.914 285.5,257C 278.807,259.872 273.14,264.039 268.5,269.5C 267.847,266.942 268.847,264.775 271.5,263C 274.728,260.56 278.061,258.394 281.5,256.5C 284.784,254.883 287.451,252.55 289.5,249.5 Z"/></g>
<g><path style="opacity:1" fill="#b4f228" d="M 152.5,258.5 C 161.17,263.67 168.003,270.67 173,279.5C 176.898,291.227 179.398,303.227 180.5,315.5C 179.2,311.999 178.034,308.333 177,304.5C 175.701,303.91 174.868,302.91 174.5,301.5C 174.887,296.907 174.887,292.24 174.5,287.5C 172.801,287.66 171.134,287.494 169.5,287C 170.574,286.261 171.241,285.261 171.5,284C 170.993,281.459 170.326,278.959 169.5,276.5C 167.45,275.923 166.45,274.59 166.5,272.5C 165.5,272.5 164.5,272.5 163.5,272.5C 163.762,273.978 163.429,275.311 162.5,276.5C 161.724,270.276 158.891,265.276 154,261.5C 153.167,264 152,264.167 150.5,262C 151.973,261.29 152.64,260.124 152.5,258.5 Z"/></g>
<g><path style="opacity:0.569" fill="#82b02e" d="M 97.5,276.5 C 99.5838,278.993 99.9171,281.66 98.5,284.5C 98.6061,281.921 97.9395,279.588 96.5,277.5C 97.1667,277.5 97.5,277.167 97.5,276.5 Z"/></g>
<g><path style="opacity:1" fill="#ade536" d="M 180.5,290.5 C 182.247,291.981 183.414,293.981 184,296.5C 184.671,297.252 185.504,297.586 186.5,297.5C 185.978,300.253 185.144,302.92 184,305.5C 182.62,300.554 181.453,295.554 180.5,290.5 Z"/></g>
<g><path style="opacity:0.767" fill="#3e5b0b" d="M 274.5,312.5 C 274.219,314.963 273.219,317.13 271.5,319C 267.952,320.941 264.286,322.607 260.5,324C 252.714,325.623 245.048,327.623 237.5,330C 234.977,331.36 232.977,333.193 231.5,335.5C 231.491,333.692 231.991,332.025 233,330.5C 235.251,328.623 237.751,327.123 240.5,326C 246.464,324.482 252.464,323.148 258.5,322C 263.368,320.67 267.701,318.504 271.5,315.5C 272.272,314.306 273.272,313.306 274.5,312.5 Z"/></g>
<g><path style="opacity:0.992" fill="#44640b" d="M 96.5,308.5 C 98.9194,314.814 102.919,319.98 108.5,324C 118.351,329.242 127.685,328.575 136.5,322C 137.833,321.333 139.167,321.333 140.5,322C 148.073,325.977 153.74,331.81 157.5,339.5C 159.428,343.285 160.762,347.285 161.5,351.5C 161.5,351.833 161.5,352.167 161.5,352.5C 158.378,341.769 152.378,332.936 143.5,326C 142.127,325.125 140.627,324.625 139,324.5C 136.156,326.488 132.989,327.821 129.5,328.5C 124.5,328.5 119.5,328.5 114.5,328.5C 104.305,325.637 98.3052,318.971 96.5,308.5 Z"/></g>
<g><path style="opacity:0.992" fill="#3e4e1f" d="M 114.5,328.5 C 119.5,328.5 124.5,328.5 129.5,328.5C 127.799,329.734 125.799,330.401 123.5,330.5C 120.298,330.14 117.298,329.474 114.5,328.5 Z"/></g>
<g><path style="opacity:1" fill="#b6f32c" d="M 180.5,315.5 C 181.319,318.305 181.819,321.305 182,324.5C 182.5,342.164 182.667,359.83 182.5,377.5C 174.673,377.32 168.34,374.32 163.5,368.5C 163.5,367.833 163.5,367.167 163.5,366.5C 163.811,361.234 163.145,356.234 161.5,351.5C 160.762,347.285 159.428,343.285 157.5,339.5C 158.376,339.369 159.043,339.702 159.5,340.5C 160.167,342.167 160.833,343.833 161.5,345.5C 162.651,346.731 163.817,346.731 165,345.5C 165.226,348.095 165.726,350.595 166.5,353C 164.477,356.183 163.977,359.683 165,363.5C 165.654,362.304 166.154,362.304 166.5,363.5C 165.167,365.5 165.167,367.5 166.5,369.5C 170.382,373.306 175.049,374.972 180.5,374.5C 181.54,354.848 181.54,335.181 180.5,315.5 Z"/></g>
<g><path style="opacity:1" fill="#75a907" d="M 365.5,293.5 C 369.5,293.5 373.5,293.5 377.5,293.5C 376.323,304.407 378.157,314.74 383,324.5C 385.529,327.348 388.695,329.015 392.5,329.5C 395.688,327.146 398.355,324.312 400.5,321C 406.483,315.661 410.649,316.827 413,324.5C 416.582,321.709 420.582,319.709 425,318.5C 429.214,319.906 431.214,322.906 431,327.5C 437.238,324.701 443.405,324.867 449.5,328C 452.269,331.607 451.936,334.94 448.5,338C 453.487,340.321 457.154,343.987 459.5,349C 457.647,353.686 454.313,356.852 449.5,358.5C 447.289,369.268 441.289,371.935 431.5,366.5C 427.866,371.571 423.199,372.738 417.5,370C 415.04,368.542 412.873,366.709 411,364.5C 407.558,373.023 402.891,373.69 397,366.5C 393.221,359.828 390.221,352.828 388,345.5C 383,340.5 378,335.5 373,330.5C 371.518,340.571 373.518,349.905 379,358.5C 384.946,365.289 391.279,371.623 398,377.5C 398.667,378.833 398.667,380.167 398,381.5C 395.933,384.07 393.433,386.07 390.5,387.5C 394.973,392.613 397.973,398.446 399.5,405C 399.646,407.034 398.98,408.701 397.5,410C 394.899,410.92 392.232,411.587 389.5,412C 393.052,419.108 394.219,426.608 393,434.5C 388.473,438.062 383.806,438.062 379,434.5C 377.527,438.779 375.527,442.779 373,446.5C 371.266,448.451 369.099,449.451 366.5,449.5C 365.505,397.572 365.171,345.572 365.5,293.5 Z"/></g>
<g><path style="opacity:0.702" fill="#85af20" d="M 161.5,351.5 C 163.145,356.234 163.811,361.234 163.5,366.5C 162.479,362.02 161.813,357.353 161.5,352.5C 161.5,352.167 161.5,351.833 161.5,351.5 Z"/></g>
<g><path style="opacity:1" fill="#b8ef35" d="M 187.5,343.5 C 188.494,353.653 188.828,363.986 188.5,374.5C 190.833,374.5 193.167,374.5 195.5,374.5C 192.67,375.735 189.67,376.735 186.5,377.5C 187.222,366.181 187.555,354.848 187.5,343.5 Z"/></g>
<g><path style="opacity:1" fill="#4a890e" d="M 355.5,293.5 C 358.833,293.5 362.167,293.5 365.5,293.5C 365.171,345.572 365.505,397.572 366.5,449.5C 362.497,449.029 359.331,447.029 357,443.5C 355.513,440.519 354.179,437.519 353,434.5C 346.231,439.514 341.064,438.347 337.5,431C 338.305,424.281 339.971,417.781 342.5,411.5C 331.327,411.41 328.827,406.41 335,396.5C 337.36,393.64 339.527,390.64 341.5,387.5C 338.567,386.07 336.067,384.07 334,381.5C 333.333,379.833 333.333,378.167 334,376.5C 337.042,373.067 340.542,370.234 344.5,368C 355.914,357.673 361.081,344.84 360,329.5C 354.667,334.833 349.333,340.167 344,345.5C 341.528,351.915 338.862,358.248 336,364.5C 330.917,373.201 325.584,373.534 320,365.5C 315.756,370.043 310.589,371.877 304.5,371C 302.658,369.656 300.992,368.156 299.5,366.5C 294.233,370.129 289.067,370.129 284,366.5C 282.748,363.986 282.248,361.32 282.5,358.5C 277.136,357.303 273.469,354.136 271.5,349C 273.117,343.383 276.783,339.717 282.5,338C 277.582,331.928 278.915,327.928 286.5,326C 291.174,325.667 295.84,325.833 300.5,326.5C 301.041,319.226 304.707,317.059 311.5,320C 313.664,320.914 315.664,322.081 317.5,323.5C 319.24,320.598 321.74,318.598 325,317.5C 326.225,317.862 327.391,318.362 328.5,319C 332.042,322.71 335.708,326.21 339.5,329.5C 346.014,328.485 350.18,324.819 352,318.5C 354.034,310.293 355.201,301.959 355.5,293.5 Z"/></g>
<g><path style="opacity:1" fill="#475c18" d="M 233.5,353.5 C 232.588,355.595 231.421,357.595 230,359.5C 215.595,368.634 206.929,381.634 204,398.5C 202.666,410.514 201.333,422.514 200,434.5C 193.981,444.845 185.481,447.345 174.5,442C 167.114,436.403 162.947,428.903 162,419.5C 161.382,402.467 161.882,385.467 163.5,368.5C 168.34,374.32 174.673,377.32 182.5,377.5C 181.551,382.74 181.218,388.073 181.5,393.5C 183.124,393.64 184.29,392.973 185,391.5C 185.538,386.829 186.038,382.162 186.5,377.5C 189.67,376.735 192.67,375.735 195.5,374.5C 199.198,373.818 202.531,372.318 205.5,370C 209.833,366.333 214.167,362.667 218.5,359C 223.417,356.728 228.417,354.895 233.5,353.5 Z"/></g>
</svg>
